<?xml version="1.0" encoding="UTF-8"?>
<svg width="680px" height="589px" viewBox="0 0 680 589" version="1.1" xmlns="http://www.w3.org/2000/svg" xmlns:xlink="http://www.w3.org/1999/xlink">
    <title>欢迎@1x</title>
    <g id="Page-1" stroke="none" stroke-width="1" fill="none" fill-rule="evenodd">
        <g id="新员工手册" transform="translate(-1583.000000, -3975.000000)">
            <g id="欢迎" transform="translate(1583.000000, 3975.000000)">
                <path d="M502.5141,419.4551 C502.4651,419.4641 502.4161,419.4631 502.3661,419.4701 L502.3661,502.3661 L370.4961,502.3661 C370.7401,503.3971 370.5601,504.5281 369.9991,505.4191 L505.4191,505.4191 L505.4191,418.4671 C504.5281,418.9231 503.5621,419.2651 502.5141,419.4551" id="Fill-79" fill="#FFBE21"></path>
                <path d="M0,-1.13686838e-13 L0,505.419 L72.702,505.419 C72.145,504.541 71.748,503.534 71.552,502.366 L3.053,502.366 L3.053,3.053 L502.366,3.053 L502.366,294.62 C502.683,293.999 503.007,293.379 503.329,292.756 C503.847,291.756 504.601,291.209 505.419,291.008 L505.419,-1.13686838e-13 L0,-1.13686838e-13 Z" id="Fill-81" fill="#FFBE21"></path>
                <path d="M642.4091,232.7881 C641.4681,231.7671 640.3881,231.2041 639.3911,230.9191 C640.4251,226.5071 642.0291,216.8131 637.4401,212.7121 C634.5041,210.0881 631.2251,208.9991 627.7031,209.4701 C624.0671,209.9571 620.7221,212.0781 618.0251,214.4391 C619.4171,209.5351 620.3501,203.7121 618.6821,199.6701 C617.7611,197.4391 616.1761,195.9021 613.9681,195.1021 C599.3561,189.8061 586.0101,204.9581 581.8431,210.3441 C580.7861,209.4901 579.1991,208.5801 576.9411,208.1381 C570.3651,206.8431 561.7741,210.1661 551.4101,218.0061 C541.6891,225.3601 532.7771,240.7251 522.4581,258.5171 C505.9591,286.9611 485.4271,322.3611 453.1531,337.6181 C424.4981,351.1621 399.5681,319.9811 399.3221,319.6641 L396.4801,321.8921 C396.7451,322.2301 423.4311,355.6571 454.6951,340.8831 C487.9851,325.1441 508.8311,289.2051 525.5801,260.3281 C535.7051,242.8751 544.4471,227.8011 553.5891,220.8861 C565.3081,212.0181 572.2861,210.9721 576.0891,211.6491 C577.9391,211.9811 579.1081,212.7381 579.7681,213.3181 L539.5031,276.4901 L542.5471,278.4331 L583.5161,214.1551 C583.8311,213.7021 598.1771,193.2181 612.7361,198.4961 C613.9661,198.9421 614.8201,199.7761 615.3441,201.0471 C617.4301,206.0971 613.9091,216.2681 611.8581,221.0081 L571.9041,285.4541 L574.9711,287.3551 L614.3551,223.8291 L614.4911,223.9041 C614.5551,223.8061 621.0061,214.0031 628.1891,213.0471 C630.6431,212.7241 632.8921,213.4881 635.0331,215.4031 C638.0081,218.0611 636.8801,226.7551 635.4401,231.7841 L595.4761,294.8021 L598.5251,296.7361 L638.1041,234.3251 C638.5771,234.4011 639.2191,234.6291 639.8061,235.2911 C641.2981,236.9771 643.1451,242.1311 638.7351,257.7001 C629.9921,288.5791 585.4711,379.1501 485.7951,426.7791 C461.3811,438.4451 439.0161,438.9721 419.3231,428.3401 C359.2351,395.9071 341.4911,270.1281 341.3181,268.8611 L337.7401,269.3491 C337.7841,269.6691 342.2331,301.8211 354.1811,337.6161 C370.3011,385.9061 391.6391,417.4991 417.6051,431.5171 C427.5511,436.8851 438.1121,439.5671 449.2251,439.5671 C461.3161,439.5671 474.0571,436.3901 487.3511,430.0371 C588.2351,381.8301 633.3411,290.0001 642.2091,258.6841 C645.9641,245.4251 646.0311,236.7131 642.4091,232.7881" id="Fill-83" fill="#000000"></path>
                <polygon id="Fill-85" fill="#000000" points="257.1352 161.3262 273.7052 161.6382 265.4002 116.8882 261.8502 117.5472 269.3472 157.9442 257.2032 157.7162"></polygon>
                <path d="M246.7763,174.2627 C247.4653,174.4137 248.1753,174.5487 248.9093,174.6697 L249.4943,171.1067 C242.6613,169.9877 238.2493,167.5087 236.3753,163.7487 C233.6703,158.3237 237.0683,151.7287 237.1013,151.6617 L233.9113,149.9737 C233.7333,150.3077 229.6123,158.2337 233.1303,165.3327 C235.3243,169.7607 239.9113,172.7587 246.7763,174.2627" id="Fill-87" fill="#000000"></path>
                <path d="M207.6264,173.1474 C210.5274,174.9614 214.2424,172.6394 213.8114,169.2454 C213.2684,164.9584 213.2184,158.0074 214.5884,146.7544 C217.9674,119.0024 279.4164,158.6594 311.3594,119.2084 C343.3034,79.7534 277.3734,37.0084 265.6924,55.2084 C254.0124,73.4084 273.1954,78.8474 260.4234,83.2304 C248.0224,87.4864 174.8024,82.8794 181.4934,143.6584 C181.8934,147.2844 183.4604,150.6804 185.9044,153.3884 C190.8184,158.8334 199.9064,168.3184 207.6264,173.1474" id="Fill-89" fill="#000000"></path>
                <path d="M304.2373,181.8867 C296.5113,196.7957 283.4433,207.8047 267.4363,212.8847 C236.4183,222.7297 203.3363,207.1377 190.7263,177.8527 L189.6943,174.5097 C183.3433,175.9827 177.8163,172.1577 175.8133,165.8407 C173.7063,159.1997 177.3943,152.0817 184.0353,149.9737 C185.1553,149.6177 186.2873,149.4377 187.4083,149.3977 C187.1443,148.2397 187.2283,146.9757 187.6113,145.7787 C187.0573,145.7867 186.5013,145.8327 185.9443,145.8987 C186.7953,138.3657 189.0093,130.9737 192.6023,124.0407 C200.3283,109.1317 213.3963,98.1237 229.4033,93.0437 C235.6713,91.0537 242.0983,90.0667 248.4923,90.0667 C258.4213,90.0667 268.2723,92.4467 277.3423,97.1467 C292.2513,104.8717 303.2593,117.9407 308.3403,133.9467 C313.4193,149.9507 311.9633,166.9767 304.2373,181.8867 M311.7813,132.8547 C306.4093,115.9297 294.7683,102.1107 279.0033,93.9407 C263.2383,85.7717 245.2353,84.2307 228.3093,89.6027 C211.3853,94.9737 197.5663,106.6147 189.3963,122.3797 C185.3923,130.1067 183.0023,138.3717 182.2193,146.7827 C174.1393,149.7677 169.7393,158.6387 172.3723,166.9327 C174.4673,173.5327 180.4133,177.8547 186.9483,178.2287 C195.2783,198.5327 212.8393,212.7937 233.1223,217.6307 L233.1223,243.1837 L236.7323,243.1837 L236.7323,218.3867 C240.5763,219.0797 244.4993,219.4467 248.4623,219.4467 C252.4013,219.4467 256.3763,219.0837 260.3483,218.3567 L260.3483,243.1837 L263.9593,243.1837 L263.9593,217.5927 C265.4853,217.2247 267.0093,216.8077 268.5293,216.3247 C285.4533,210.9537 299.2733,199.3137 307.4433,183.5477 C315.6123,167.7827 317.1533,149.7787 311.7813,132.8547" id="Fill-91" fill="#000000"></path>
                <path d="M191.6088,156.5908 C188.6838,154.2218 184.6438,153.7198 179.5958,155.1038 L180.5498,158.5848 C184.4108,157.5278 187.3678,157.8008 189.3368,159.3968 C192.7618,162.1718 192.5048,168.3008 192.5008,168.3618 L196.1048,168.5718 C196.1238,168.2468 196.5138,160.5658 191.6088,156.5908" id="Fill-93" fill="#000000"></path>
                <path d="M396.1552,422.1289 L363.0272,413.7329 L363.1562,454.4099 L363.1722,457.4629 L258.2152,457.4629 L261.4742,481.3879 C267.1362,481.8299 272.6462,482.1959 277.9352,482.5479 C298.6772,483.9439 316.5892,485.1569 327.1972,489.4459 C330.4172,490.7509 333.1342,492.0409 335.4012,493.3229 C336.3852,493.7749 344.9782,497.9169 344.3522,503.1519 C344.3222,503.4039 344.2762,503.6499 344.1992,503.8929 C344.1002,504.2819 343.9332,504.6639 343.7192,505.0369 L338.7512,505.0369 C339.6742,504.3349 340.2852,503.5569 340.3612,502.7639 C340.5142,501.4499 339.4072,497.8029 325.9142,492.3309 C315.8102,488.2329 298.1282,487.0419 277.6682,485.6689 C246.3252,483.5639 207.3132,480.9519 173.5122,466.7959 C172.8792,466.5279 172.2612,466.2619 171.6432,465.9799 C171.0482,465.7119 170.4522,465.4389 169.8722,465.1549 C169.3082,464.8809 168.7512,464.6069 168.1942,464.3159 C151.1292,455.4549 140.4682,440.8109 137.1482,421.2969 L136.3932,403.8439 L135.6982,403.8049 L47.6612,398.9889 L45.9592,398.8999 L45.9362,398.8999 C57.3302,235.1709 236.7322,235.1709 236.7322,235.1709 C247.3712,252.4719 260.3442,236.8119 260.3442,236.8119 C360.3182,253.9219 415.7912,328.3159 415.7912,328.3159 L396.1552,422.1289 Z" id="Fill-95" fill="#FFBE21"></path>
                <path d="M360.0966,547.3388 C359.0426,551.6908 354.4646,555.2908 346.2296,558.1988 C343.0246,559.5338 339.2926,560.8088 334.9726,562.0448 C336.7976,563.0748 338.4606,564.5868 338.4916,566.6998 C338.5216,568.3338 337.7356,570.5008 333.1266,573.2638 C331.5466,574.2098 329.5246,575.2248 326.9376,576.3178 C323.3436,577.8268 318.6576,579.4758 312.5516,581.2698 C292.8776,587.0538 254.0866,591.4868 209.4496,584.9468 C200.2766,583.5968 190.1116,581.6578 179.4726,578.8728 C149.5116,571.0268 115.7196,556.4508 89.2216,529.5038 C83.6136,523.8038 77.0806,515.8898 70.7536,506.1828 C70.2656,505.4268 69.7776,504.6638 69.2886,503.8928 C53.0716,478.1668 38.8236,440.7568 45.9586,398.8998 L45.9586,398.8828 L47.6606,398.9888 L49.1336,399.0888 C39.2356,457.1188 71.4716,506.8918 91.5576,527.3208 C126.8616,563.2278 175.4356,576.7888 209.9836,581.8568 C251.2556,587.9018 290.7866,584.4128 311.6666,578.2848 C317.9166,576.4458 322.5186,574.8048 325.8996,573.3698 C325.9906,573.3318 326.0756,573.2938 326.1586,573.2638 C334.7366,569.5928 335.2856,567.3338 335.2786,566.7918 C335.2556,565.4558 332.2256,563.9988 329.8756,563.3808 C329.7616,563.3508 329.6386,563.3268 329.5326,563.2968 L327.2276,562.7628 C293.6636,568.2118 252.6136,561.2208 252.1936,561.1518 L252.8046,558.0768 C253.2166,558.1528 294.9536,565.2348 328.2116,559.4358 C335.6446,558.1378 341.1856,556.6728 345.3216,555.1848 C354.6626,551.2008 356.7226,547.6368 356.9366,545.5228 C357.0206,544.7058 356.8606,543.8978 356.5396,543.1108 C355.9596,541.8158 355.0286,540.6688 354.1816,539.8158 C353.6326,539.2728 353.0366,538.7618 352.4186,538.2658 C352.3576,538.2348 352.3276,538.2038 352.3196,538.2038 C350.3966,536.7158 348.3056,535.5328 346.8706,534.8608 C333.4166,542.1948 302.3106,542.8058 247.8286,537.1358 L248.2106,534.0368 C284.6436,537.8218 332.6226,541.3108 347.1916,530.9538 C350.4426,527.9088 351.7776,525.1088 351.1596,522.6198 C351.1146,522.4528 351.0536,522.2998 350.9846,522.1318 C349.5566,518.7208 345.1386,516.1638 342.0776,514.7518 C341.1316,514.3178 340.1626,513.9288 339.2166,513.5688 C339.0636,513.5168 338.9876,513.4848 338.9716,513.4778 C336.0416,512.3868 333.2186,511.6238 331.3556,511.2188 C307.5606,516.5998 247.6306,511.6998 245.0816,511.4858 L245.3946,508.3718 C245.9966,508.4178 302.1276,513.0128 327.4026,508.8158 L331.0426,508.0898 C332.4926,507.7468 333.7296,507.4028 334.7976,507.0598 C336.3466,506.5028 337.7436,505.8088 338.7506,505.0368 C339.6746,504.3348 340.2846,503.5568 340.3616,502.7638 C340.5136,501.4498 339.4076,497.8028 325.9146,492.3308 C315.8106,488.2338 298.1286,487.0418 277.6676,485.6688 C246.3256,483.5628 207.3126,480.9518 173.5126,466.7958 C172.8796,466.5278 172.2616,466.2618 171.6426,465.9798 C171.0476,465.7118 170.4526,465.4378 169.8726,465.1548 C169.3076,464.8808 168.7506,464.6068 168.1936,464.3158 C151.0456,455.4858 139.9646,440.9788 136.6376,421.4568 C136.2096,418.9228 135.9046,416.2978 135.7446,413.5968 C135.5456,410.4218 135.5306,407.1548 135.6986,403.8438 L135.6986,403.8048 C136.3466,390.8088 139.7276,377.1408 145.4826,365.6398 L148.3446,366.8838 C141.9796,380.3228 137.8966,396.9898 138.7736,411.4218 C140.2696,435.8118 153.4036,454.9518 174.8256,463.9268 C201.4296,475.0758 231.4816,478.9678 258.3606,481.1438 C259.4056,481.2278 260.4436,481.3118 261.4736,481.3878 C267.1366,481.8298 272.6466,482.1958 277.9356,482.5478 C298.6776,483.9438 316.5886,485.1568 327.1966,489.4458 C330.4176,490.7508 333.1346,492.0408 335.4006,493.3228 C336.3856,493.7748 344.9786,497.9168 344.3526,503.1518 C344.3216,503.4038 344.2766,503.6498 344.1996,503.8928 C344.1006,504.2818 343.9326,504.6638 343.7196,505.0368 C343.4906,505.4348 343.2006,505.8158 342.8416,506.1828 C341.6586,507.4488 339.7656,508.5558 337.1636,509.5318 C338.1096,509.8378 339.1326,510.1738 340.1936,510.5698 C340.6746,510.7318 342.2076,511.2878 344.1156,512.2268 C348.7476,514.4088 353.1596,517.5378 354.2586,521.7198 C354.9456,523.9178 354.7236,526.1848 353.5716,528.4508 C352.7396,530.0838 351.5266,531.5568 349.9086,532.8618 C351.1146,533.5258 352.6786,534.4648 354.2126,535.6478 C354.3496,535.7468 355.8836,536.8228 357.3796,538.5698 L357.4256,538.6158 C357.4866,538.6928 357.5396,538.7618 357.6006,538.8378 C358.2426,539.6008 358.7996,540.4168 359.2336,541.2728 C359.2416,541.3028 359.2566,541.3408 359.2716,541.3628 C359.2946,541.4018 359.3176,541.4408 359.3336,541.4788 C360.1726,543.1948 360.6226,545.1798 360.0966,547.3388" id="Fill-97" fill="#000000"></path>
                <path d="M548.5053,199.4717 L546.4993,198.3677 C550.8733,190.4137 556.0423,185.8237 561.8613,184.7197 C568.8643,183.3967 574.1093,187.6707 574.3283,187.8537 L572.8663,189.6167 C572.8203,189.5767 568.1933,185.8337 562.2583,186.9757 C557.1543,187.9537 552.5263,192.1597 548.5053,199.4717" id="Fill-99" fill="#FFBE21"></path>
                <path d="M543.3002,188.9101 L541.4432,187.5711 C547.7452,178.8351 554.8812,173.8931 562.6512,172.8831 C572.9192,171.5421 580.4432,177.6001 580.7582,177.8581 L579.3052,179.6291 L580.0312,178.7441 L579.3062,179.6301 C579.2372,179.5721 572.1992,173.9331 562.9162,175.1571 C555.8092,176.0931 549.2092,180.7201 543.3002,188.9101" id="Fill-101" fill="#FFBE21"></path>
                <path d="M662.9389,257.7119 L661.3969,256.0209 L662.1679,256.8659 L661.3939,256.0229 C661.4379,255.9819 665.7769,251.9099 665.4609,245.8759 C665.1899,240.6849 661.6579,235.5259 654.9649,230.5419 L656.3329,228.7049 C663.6129,234.1269 667.4539,239.8759 667.7489,245.7909 C668.1049,252.9119 663.1509,257.5189 662.9389,257.7119" id="Fill-103" fill="#FFBE21"></path>
                <path d="M671.9599,265.4482 L670.4049,263.7682 L671.1829,264.6082 L670.4039,263.7692 C670.4699,263.7082 677.0179,257.5092 677.0779,248.1442 C677.1249,240.9762 673.4439,233.8052 666.1389,226.8312 L667.7199,225.1752 C675.5109,232.6132 679.4299,240.3582 679.3679,248.1932 C679.2849,258.5562 672.2589,265.1732 671.9599,265.4482" id="Fill-105" fill="#FFBE21"></path>
                <path d="M368.3764,538.8828 L372.0704,506.1828 L372.3304,503.8928 L374.0464,488.7218 L374.0474,488.7138 C374.4134,488.2728 375.1054,487.4548 375.8934,486.6108 C382.1394,479.9068 390.1904,481.4448 395.0294,485.7088 C399.9214,490.0198 402.4884,497.8968 396.5654,505.0058 L368.3764,538.8828 Z M397.0484,483.4178 C391.3824,478.4248 382.1114,476.5008 374.6264,483.5638 L374.6264,483.5628 L377.9234,454.4098 L254.7204,454.4098 L258.3604,481.1438 L258.6044,482.9368 L261.6264,482.5248 L261.4744,481.3878 L258.2154,457.4628 L374.5044,457.4628 L369.2544,503.8928 L368.9944,506.1828 L361.4164,573.2638 L326.9814,573.2638 L325.8994,576.3178 L364.1414,576.3178 L367.7514,544.4158 L367.7514,544.4078 L367.7514,544.4068 L398.9104,506.9588 C406.1394,498.2838 403.0124,488.6748 397.0484,483.4178 L397.0484,483.4178 Z" id="Fill-107" fill="#000000"></path>
            </g>
        </g>
    </g>
</svg>