<?xml version="1.0" standalone="no"?><!DOCTYPE svg PUBLIC "-//W3C//DTD SVG 1.1//EN" "http://www.w3.org/Graphics/SVG/1.1/DTD/svg11.dtd"><svg t="1652262154331" class="icon" viewBox="0 0 1024 1024" version="1.1" xmlns="http://www.w3.org/2000/svg" p-id="751" xmlns:xlink="http://www.w3.org/1999/xlink" width="200" height="200"><defs><style type="text/css">@font-face { font-family: feedback-iconfont; src: url("//at.alicdn.com/t/font_1031158_u69w8yhxdu.woff2?t=1630033759944") format("woff2"), url("//at.alicdn.com/t/font_1031158_u69w8yhxdu.woff?t=1630033759944") format("woff"), url("//at.alicdn.com/t/font_1031158_u69w8yhxdu.ttf?t=1630033759944") format("truetype"); }
</style></defs><path d="M959.5392 352.90624a24.4992 24.4992 0 0 0-24.48896-24.50944h-99.456a574.7712 574.7712 0 0 0-45.63968-65.13664c-80.86016-99.63008-180.18816-154.51648-279.66464-154.51648-99.47648 0-198.81984 54.8864-279.66464 154.51648A574.57664 574.57664 0 0 0 184.9856 328.3968H87.92576a24.48384 24.48384 0 0 0-24.48896 24.50944c0 184.01792 19.78368 364.63616 207.09376 442.27584l-3.22048 91.66336a24.44288 24.44288 0 0 0 6.8608 17.87392 24.50432 24.50432 0 0 0 17.64864 7.50592h424.89856a24.51456 24.51456 0 0 0 24.46848-25.37984l-3.01056-86.13888c200.51456-74.24512 221.3632-259.2512 221.3632-447.80032zM510.2848 157.75744c104.79616 0 202.15808 77.52704 266.37824 170.63936H243.90656c64.22016-93.11232 161.56672-170.63936 266.37824-170.63936z m181.06368 705.4592h-374.1696l1.792-51.33824c52.69504 14.78656 116.096 22.98368 192.51712 22.98368 69.69344 0 128.38912-6.89664 178.2016-19.32288l1.65888 47.67744zM511.488 785.8432c-325.59104 0-395.07456-143.3088-398.90432-408.4736h797.78816c-3.80928 265.1648-73.31328 408.4736-398.88384 408.4736z m47.35488-536.49408l44.82048 22.41024a22.4 22.4 0 0 0 30.07488-10.02496 22.4 22.4 0 0 0-10.02496-30.07488l-44.82048-22.41024a22.36928 22.36928 0 0 0-30.06976 10.02496 22.4256 22.4256 0 0 0 10.01984 30.07488z m-149.90336 17.53088c4.3264 0 8.68864-1.21856 12.55936-3.85024l35.38944-23.97184a22.41024 22.41024 0 0 0 5.9648-31.13984 22.3744 22.3744 0 0 0-31.11936-5.98528l-35.38944 24.0128a22.36416 22.36416 0 0 0-5.9648 31.104 22.33344 22.33344 0 0 0 18.56 9.8304z" p-id="752" fill="#3cc51f"></path></svg>